<svg width="18" height="16" viewBox="0 0 18 16" fill="none" xmlns="http://www.w3.org/2000/svg">
<path d="M7.12484 8.00065C7.12484 6.96512 7.9643 6.12565 8.99984 6.12565C10.0354 6.12565 10.8748 6.96512 10.8748 8.00065C10.8748 9.03618 10.0354 9.87565 8.99984 9.87565C7.9643 9.87565 7.12484 9.03618 7.12484 8.00065Z" fill="#868789"/>
<path fill-rule="evenodd" clip-rule="evenodd" d="M4.29295 2.66375C5.60255 1.59148 7.21571 0.708984 8.99984 0.708984C10.784 0.708984 12.3971 1.59148 13.7067 2.66375C15.0235 3.74187 16.1002 5.06619 16.8237 6.074L16.8833 6.15698C17.3189 6.76218 17.6774 7.26036 17.6774 8.00065C17.6774 8.74094 17.3189 9.23912 16.8833 9.84433L16.8237 9.92731C16.1002 10.9351 15.0235 12.2594 13.7067 13.3376C12.3971 14.4098 10.784 15.2923 8.99984 15.2923C7.21571 15.2923 5.60255 14.4098 4.29295 13.3376C2.9762 12.2594 1.89952 10.9351 1.17602 9.92731L1.11635 9.84433C0.680797 9.23912 0.322266 8.74094 0.322266 8.00065C0.322266 7.26036 0.680797 6.76218 1.11635 6.15698L1.17602 6.074C1.89952 5.06619 2.9762 3.74187 4.29295 2.66375ZM8.99984 4.87565C7.27395 4.87565 5.87484 6.27476 5.87484 8.00065C5.87484 9.72654 7.27395 11.1257 8.99984 11.1257C10.7257 11.1257 12.1248 9.72654 12.1248 8.00065C12.1248 6.27476 10.7257 4.87565 8.99984 4.87565Z" fill="#868789"/>
</svg>
