<svg width="18" height="16" viewBox="0 0 18 16" fill="none" xmlns="http://www.w3.org/2000/svg">
<path fill-rule="evenodd" clip-rule="evenodd" d="M17.7231 1.82205C17.9927 1.60642 18.0364 1.21311 17.8207 0.943573C17.6051 0.674034 17.2118 0.630333 16.9423 0.845964L14.1712 3.06285C14.0198 2.92691 13.8648 2.79356 13.7063 2.66377C12.3967 1.5915 10.7835 0.709007 8.99938 0.709007C7.21525 0.709007 5.60208 1.5915 4.29248 2.66377C2.97573 3.74189 1.89905 5.06622 1.17555 6.07402L1.11588 6.157C0.680332 6.7622 0.3218 7.26039 0.3218 8.00067C0.3218 8.74096 0.680332 9.23914 1.11588 9.84435L1.17555 9.92733C1.62943 10.5596 2.2223 11.3164 2.92624 12.0588L0.275604 14.1793C0.00606555 14.3949 -0.0376353 14.7882 0.177996 15.0578C0.393627 15.3273 0.786934 15.371 1.05647 15.1554L17.7231 1.82205ZM6.2175 9.42578L7.22812 8.61728C7.1609 8.42417 7.12437 8.21669 7.12437 8.00067C7.12437 6.96514 7.96384 6.12567 8.99937 6.12567C9.36286 6.12567 9.7022 6.22911 9.98954 6.40815L10.9999 5.59985C10.4579 5.14771 9.7604 4.87567 8.99937 4.87567C7.27348 4.87567 5.87437 6.27478 5.87437 8.00067C5.87437 8.51403 5.99815 8.99847 6.2175 9.42578Z" fill="#868789"/>
<path d="M16.2453 5.30469L12.0554 8.65662C11.754 10.0676 10.5003 11.1257 8.99937 11.1257L8.96928 11.1255L5.28939 14.0694C6.38882 14.7837 7.64483 15.2923 8.99938 15.2923C10.7835 15.2923 12.3967 14.4098 13.7063 13.3376C15.023 12.2595 16.0997 10.9351 16.8232 9.92733L16.8829 9.84435C17.3184 9.23915 17.677 8.74096 17.677 8.00067C17.677 7.26039 17.3184 6.7622 16.8829 6.157L16.8232 6.07402C16.6502 5.8331 16.4571 5.57409 16.2453 5.30469Z" fill="#868789"/>
</svg>
