<svg width="32" height="35" viewBox="0 0 32 35" fill="none" xmlns="http://www.w3.org/2000/svg">
<path d="M15.5857 27.1675C22.9783 27.1675 28.9712 21.1746 28.9712 13.782C28.9712 6.38939 22.9783 0.396484 15.5857 0.396484C8.1931 0.396484 2.2002 6.38939 2.2002 13.782C2.2002 21.1746 8.1931 27.1675 15.5857 27.1675Z" fill="#FFD15C"/>
<path d="M4.74284 21.6152L0.136719 29.5993L5.51205 29.3138L7.95396 34.1116L12.2146 26.7259C9.2056 25.9428 6.56355 24.1356 4.74284 21.6152Z" fill="#E13D00"/>
<path d="M26.4561 21.5742C24.6444 24.1004 22.0094 25.9167 19.0039 26.711L23.2776 34.111L25.7195 29.3132L31.0948 29.5988L26.4561 21.5742Z" fill="#E13D00"/>
<path d="M15.5862 23.483C20.9448 23.483 25.2887 19.1391 25.2887 13.7806C25.2887 8.42206 20.9448 4.07812 15.5862 4.07812C10.2277 4.07812 5.88379 8.42206 5.88379 13.7806C5.88379 19.1391 10.2277 23.483 15.5862 23.483Z" fill="#F8B64C"/>
<path d="M22.236 12.7326C22.3031 12.6666 22.3506 12.5832 22.373 12.4918C22.3955 12.4003 22.392 12.3045 22.3631 12.2149C22.3341 12.1253 22.2808 12.0455 22.2091 11.9845C22.1373 11.9235 22.0501 11.8837 21.957 11.8695L18.1279 11.3115C18.0468 11.2996 17.9699 11.2679 17.904 11.2193C17.8381 11.1706 17.7851 11.1065 17.7498 11.0325L16.038 7.56194C15.9968 7.47585 15.9321 7.40316 15.8514 7.35229C15.7706 7.30141 15.6771 7.27441 15.5817 7.27441C15.4863 7.27441 15.3928 7.30141 15.312 7.35229C15.2313 7.40316 15.1666 7.47585 15.1254 7.56194L13.4201 11.0325C13.3833 11.1053 13.3299 11.1685 13.2642 11.217C13.1986 11.2655 13.1225 11.2978 13.042 11.3115L9.2129 11.8695C9.11983 11.8837 9.03255 11.9235 8.96083 11.9845C8.88911 12.0455 8.83578 12.1253 8.80682 12.2149C8.77786 12.3045 8.7744 12.4003 8.79685 12.4918C8.81929 12.5832 8.86676 12.6666 8.93392 12.7326L11.7018 15.4339C11.7597 15.4911 11.8032 15.5612 11.8286 15.6385C11.854 15.7158 11.8606 15.7981 11.8478 15.8785L11.1959 19.688C11.1802 19.7812 11.1909 19.877 11.2268 19.9644C11.2627 20.0518 11.3224 20.1274 11.399 20.1827C11.4757 20.2379 11.5663 20.2705 11.6606 20.2769C11.7549 20.2833 11.8491 20.2631 11.9325 20.2187L15.3575 18.4208C15.4297 18.3817 15.5106 18.3612 15.5928 18.3612C15.675 18.3612 15.7558 18.3817 15.8281 18.4208L19.253 20.2187C19.3365 20.262 19.4304 20.2814 19.5243 20.2746C19.6181 20.2678 19.7083 20.235 19.7846 20.18C19.861 20.125 19.9206 20.0499 19.9568 19.963C19.993 19.8762 20.0043 19.781 19.9896 19.688L19.3378 15.8785C19.3239 15.7981 19.33 15.7156 19.3555 15.6381C19.3809 15.5606 19.425 15.4905 19.4838 15.4339L22.236 12.7326Z" fill="white"/>
</svg>
