<svg width="136" height="42" viewBox="0 0 136 42" fill="none" xmlns="http://www.w3.org/2000/svg">
<path d="M16.463 34.3722L16.3814 34.2991L16.172 34.0884L16.0817 34.0241C15.7664 33.8129 15.3968 33.6984 15.0181 33.6947C14.5362 33.6943 14.072 33.8773 13.7187 34.207L13.6183 34.3079C13.101 34.8357 12.4828 35.2525 11.8009 35.5331C11.0917 35.8128 10.3364 35.9554 9.57458 35.9533C8.81176 35.9633 8.05492 35.8168 7.3502 35.5229C6.64548 35.2289 6.00765 34.7936 5.47567 34.2435C4.66679 33.4346 4.1136 32.4032 3.88553 31.279C3.65747 30.1548 3.76474 28.9878 4.19385 27.9247C4.47979 27.2078 4.91713 26.562 5.47567 26.032C6.02236 25.477 6.67461 25.0385 7.39345 24.7426C8.08532 24.4563 8.82649 24.3101 9.57458 24.3123C11.0836 24.3112 12.5328 24.9055 13.6108 25.9677C13.6337 26.0049 13.6645 26.0363 13.7011 26.0598C14.0586 26.3836 14.5249 26.5589 15.0058 26.5504C15.4868 26.5419 15.9467 26.3502 16.2926 26.014C16.6386 25.6778 16.8449 25.2221 16.87 24.7389C16.8951 24.2556 16.7371 23.7807 16.4279 23.4101L16.3551 23.3369C16.2892 23.2598 16.2162 23.1893 16.1368 23.1262L16.0554 23.0619C15.2162 22.2758 14.2376 21.6557 13.1705 21.2336C10.8499 20.3075 8.26542 20.3075 5.94479 21.2336C4.75482 21.7219 3.67791 22.4521 2.78155 23.3786C1.86778 24.2762 1.15234 25.3574 0.681912 26.5519C-0.227304 28.8855 -0.227304 31.4784 0.681912 33.8121C1.14887 35.0109 1.86469 36.0957 2.78155 36.9942C3.69019 37.899 4.77241 38.6082 5.96232 39.0786C8.27821 40.0293 10.8722 40.0293 13.1881 39.0786C14.2998 38.6281 15.3149 37.9667 16.1783 37.1305C16.2462 37.0775 16.31 37.0193 16.3689 36.9564L16.4868 36.8378C16.7725 36.502 16.9275 36.0735 16.9233 35.6315C16.9253 35.171 16.7603 34.7255 16.4592 34.3785L16.463 34.3722Z" fill="white"/>
<path d="M80.6653 24.4646C80.6745 24.4411 80.6745 24.4148 80.6653 24.3913C80.6034 24.1004 80.4746 23.8281 80.289 23.5964L80.1974 23.5144C80.1392 23.4388 80.0683 23.3739 79.988 23.3226C79.1491 22.498 78.154 21.8513 77.0618 21.4212C74.7885 20.495 72.2461 20.495 69.9727 21.4212C68.7958 21.895 67.7284 22.6075 66.8371 23.5144C65.9407 24.4048 65.2381 25.473 64.7739 26.6512C64.3334 27.7765 64.1054 28.9746 64.1016 30.1841C64.1036 31.4105 64.3316 32.6259 64.7739 33.7687C65.233 34.9495 65.9362 36.0187 66.8371 36.9055C67.7138 37.7956 68.758 38.5013 69.9088 38.9811C71.0583 39.4741 72.2965 39.7231 73.5461 39.7129C75.7278 39.7124 77.8417 38.9498 79.5264 37.5553C79.7622 37.3547 79.9805 37.1528 80.2087 36.9244L80.3994 36.7414C80.5097 36.5308 80.5807 36.3015 80.6088 36.0651C80.6224 35.9816 80.6224 35.8963 80.6088 35.8128C80.6224 35.722 80.6224 35.6297 80.6088 35.539C80.5466 35.0688 80.315 34.638 79.9581 34.328C79.6012 34.018 79.1437 33.8504 78.6723 33.8571C78.3329 33.853 77.9991 33.9449 77.709 34.1221L77.5635 34.2684C77.4052 34.4303 77.2377 34.5828 77.0618 34.7251C76.2268 35.4047 75.2147 35.8274 74.1468 35.9427C73.0789 36.0579 72.0006 35.8608 71.0413 35.375L80.2577 26.1035C80.4638 25.862 80.6072 25.5728 80.6753 25.2619C80.6836 25.2383 80.6836 25.2125 80.6753 25.1888C80.7239 24.9566 80.7239 24.7169 80.6753 24.4847L80.6653 24.4646ZM74.3024 26.7231C73.5875 27.4238 72.8421 28.1644 72.0661 28.945C71.3023 29.7311 70.561 30.4592 69.8762 31.1481L68.3397 32.6937C67.957 31.9145 67.7579 31.057 67.7577 30.1878C67.7497 29.4332 67.8947 28.6849 68.1839 27.9885C68.4731 27.2921 68.9004 26.6623 69.4397 26.1376C70.2794 25.2675 71.3821 24.7017 72.5753 24.5289C73.7334 24.3564 74.9162 24.5481 75.9618 25.0777L74.3024 26.7231Z" fill="white"/>
<path d="M91.8386 20.7363C93.0877 20.7311 94.325 20.98 95.476 21.4682C96.5921 21.9473 97.607 22.6363 98.4661 23.4983C99.3209 24.3643 100.006 25.3849 100.484 26.5063C100.975 27.6629 101.225 28.908 101.22 30.1654V39.6841H91.8399C90.59 39.6889 89.3522 39.4369 88.2025 38.9435C87.0547 38.4605 86.0127 37.7546 85.1363 36.8661C84.26 35.9776 83.5664 34.9239 83.0953 33.7654C82.6241 32.6069 82.3847 31.3664 82.3907 30.1147C82.3968 28.8631 82.6481 27.6248 83.1303 26.471C83.6123 25.3446 84.307 24.3231 85.176 23.463C86.0472 22.5974 87.0749 21.9074 88.2038 21.4303C89.358 20.9567 90.5947 20.7203 91.8411 20.735L91.8386 20.7363ZM97.5104 35.9518V30.1995C97.516 29.4396 97.3675 28.6865 97.0739 27.9864C96.4975 26.6139 95.4117 25.5217 94.0474 24.9418C93.3502 24.6394 92.5978 24.4867 91.8386 24.4938C90.7157 24.487 89.616 24.8151 88.6784 25.4367C87.7408 26.0584 87.0074 26.9456 86.5708 27.9864C86.2714 28.685 86.1198 29.4387 86.1255 30.1995C86.1185 30.9567 86.2615 31.7077 86.5463 32.4087C86.8312 33.1096 87.252 33.7464 87.7843 34.2819C88.3165 34.8174 88.9496 35.2407 89.6463 35.5273C90.3431 35.8138 91.0897 35.9577 91.8424 35.9506L97.5104 35.9518Z" fill="white"/>
<path d="M115.423 22.4113C115.368 21.9901 115.172 21.6001 114.869 21.3046C114.565 21.0091 114.171 20.8256 113.751 20.7837H113.614C113.427 20.77 113.239 20.77 113.051 20.7837C111.997 20.8199 110.958 21.0521 109.988 21.4688C108.865 21.9542 107.842 22.6457 106.971 23.5078C106.1 24.3651 105.402 25.3835 104.916 26.5071C104.424 27.6786 104.174 28.9385 104.18 30.2103V37.8906C104.227 38.3738 104.455 38.8209 104.818 39.1411C105.181 39.4613 105.651 39.6305 106.134 39.6144C106.616 39.5984 107.074 39.3982 107.416 39.0546C107.757 38.711 107.955 38.2498 107.97 37.7644V30.2115C107.963 29.4478 108.115 28.691 108.415 27.9896C108.703 27.3104 109.113 26.6905 109.625 26.1613C110.151 25.643 110.767 25.225 111.442 24.9273C112.02 24.6853 112.634 24.5432 113.259 24.5071C113.402 24.498 113.545 24.498 113.687 24.5071H113.996C114.029 24.5154 114.063 24.5154 114.096 24.5071C114.204 24.4885 114.309 24.4514 114.405 24.3974C114.775 24.2403 115.079 23.9595 115.267 23.6025C115.377 23.3945 115.448 23.1684 115.477 22.935C115.491 22.8515 115.491 22.7661 115.477 22.6827C115.473 22.59 115.454 22.4985 115.423 22.4113Z" fill="white"/>
<path d="M134.3 26.5149C133.824 25.3904 133.132 24.3713 132.264 23.5157C131.399 22.6575 130.382 21.969 129.266 21.4856C127.833 20.8706 126.27 20.6233 124.719 20.7657C123.168 20.9082 121.676 21.4359 120.378 22.3016C119.079 23.1673 118.015 24.3438 117.28 25.7256C116.545 27.1073 116.163 28.6511 116.167 30.2181V37.8076C116.163 37.8496 116.163 37.8919 116.167 37.9338C116.191 38.394 116.381 38.8297 116.7 39.1599C117.019 39.4902 117.447 39.6927 117.904 39.7295C118.36 39.7664 118.815 39.6352 119.182 39.3604C119.55 39.0856 119.806 38.6858 119.902 38.2353V30.2169C119.893 29.4538 120.041 28.697 120.339 27.995C120.627 27.3119 121.044 26.6911 121.566 26.1666C122.081 25.6391 122.7 25.225 123.383 24.9503C124.08 24.6449 124.832 24.4894 125.592 24.4936C127.107 24.5032 128.56 25.1028 129.646 26.1666C130.165 26.6915 130.578 27.3123 130.863 27.995C131.164 28.6963 131.316 29.4531 131.309 30.2169V38.007C131.352 38.4759 131.568 38.9114 131.915 39.2279C132.261 39.5443 132.713 39.7187 133.181 39.7167C133.605 39.709 134.014 39.559 134.343 39.2906C134.673 39.0222 134.903 38.6508 134.999 38.2353C135.003 38.2082 135.003 38.1805 134.999 38.1533V30.2169C135.025 28.9468 134.787 27.6853 134.299 26.5136L134.3 26.5149Z" fill="white"/>
<path d="M60.788 35.8705H55.653V19.1282C55.6573 19.0736 55.6573 19.0187 55.653 18.9642C55.6652 18.8915 55.6652 18.8173 55.653 18.7447C55.6026 18.5096 55.4968 18.2902 55.3444 18.1049C55.1656 17.8477 54.9275 17.6377 54.6506 17.4929C54.3737 17.3481 54.0662 17.2729 53.7541 17.2734C53.4272 17.2727 53.1056 17.3565 52.82 17.5166C52.5345 17.6768 52.2947 17.908 52.1235 18.1882C52.0254 18.3337 51.9517 18.4944 51.9053 18.6639V18.7736C51.8975 18.8153 51.8975 18.8582 51.9053 18.8998C51.8966 18.9299 51.8966 18.9619 51.9053 18.992C51.8952 19.0278 51.8952 19.0658 51.9053 19.1017V37.5347C51.8918 37.6183 51.8918 37.7035 51.9053 37.7871C51.8909 37.8748 51.8909 37.9644 51.9053 38.0521C51.9669 38.5102 52.1914 38.9304 52.5373 39.2348C52.8833 39.5391 53.3271 39.707 53.7867 39.7074H60.8494C61.111 39.7266 61.3738 39.6912 61.6213 39.6036C61.8687 39.516 62.0956 39.3781 62.2877 39.1984C62.4798 39.0187 62.6331 38.801 62.7379 38.5591C62.8426 38.3171 62.8967 38.056 62.8967 37.7921C62.8967 37.5282 62.8426 37.2672 62.7379 37.0252C62.6331 36.7833 62.4798 36.5656 62.2877 36.3859C62.0956 36.2061 61.8687 36.0681 61.6213 35.9806C61.3738 35.893 61.111 35.8577 60.8494 35.8768L60.788 35.8705Z" fill="white"/>
<path d="M10.1445 13.3772L23.4146 1.234L41.4382 0L28.177 13.3746L10.1445 13.3772Z" fill="#FFC116"/>
<path d="M49.5898 25.3738V25.5114C49.594 27.6591 49.1556 29.7843 48.3024 31.7531C47.4492 33.7218 46.1997 35.4913 44.6327 36.95C43.0657 38.4086 41.2152 39.5248 39.198 40.2281C37.1807 40.9313 35.0405 41.2064 32.9123 41.0359C30.7842 40.8654 28.7142 40.2532 26.8329 39.2377C24.9517 38.2222 23.3002 36.8255 21.9823 35.1358C20.6645 33.4461 19.7091 31.5 19.1763 29.4202C18.6436 27.3405 18.545 25.1722 18.8869 23.0522C19.7336 21.9954 20.8049 21.1428 22.0221 20.5572C23.2393 19.9716 24.5715 19.6678 25.9208 19.6682C27.2761 19.6672 28.6134 19.9802 29.829 20.5829C29.1125 21.1856 28.5366 21.9396 28.1423 22.7914C27.748 23.6432 27.5449 24.5718 27.5475 25.5114C27.5487 26.3783 27.7196 27.2366 28.0504 28.037C28.3813 28.8375 28.8656 29.5646 29.4758 30.1768C30.0859 30.789 30.81 31.2742 31.6066 31.6049C32.4033 31.9356 33.2568 32.1053 34.1186 32.1041C34.1818 32.1128 34.246 32.1128 34.3092 32.1041C35.1955 32.0828 36.068 31.8777 36.8719 31.5016C37.6758 31.1256 38.3939 30.5868 38.9813 29.9187C40.0751 28.7236 40.6764 27.1548 40.6633 25.5303C40.6644 24.665 40.496 23.8079 40.1676 23.0081C39.8392 22.2083 39.3573 21.4814 38.7495 20.8691C38.1416 20.2568 37.4198 19.7711 36.6252 19.4396C35.8305 19.1082 34.9788 18.9377 34.1186 18.9377C33.6597 18.9456 33.203 19.0005 32.7552 19.1017C33.2137 17.13 34.3147 15.3692 35.8831 14.1C37.4514 12.8307 39.3969 12.1258 41.4096 12.0977C41.6503 12.1351 41.8874 12.1933 42.1182 12.2718C44.3723 13.632 46.2424 15.5503 47.5503 17.8439C48.8583 20.1375 49.5604 22.7298 49.5898 25.3738Z" fill="#FFC116"/>
<path d="M36.3843 7.64453L28.9215 15.0599L18.3594 15.2605C18.3951 16.9123 18.9773 18.5048 20.0137 19.7864L20.2408 19.6603C21.8092 18.5072 23.6806 17.8444 25.6212 17.7546C27.5618 17.6649 29.4857 18.1521 31.1528 19.1555V18.9625C31.1979 18.6786 31.2531 18.4048 31.3158 18.131C31.3329 18.0508 31.3543 17.9716 31.3798 17.8938C31.8224 16.2316 32.6816 14.7115 33.8751 13.4788C35.0686 12.2461 36.5566 11.342 38.1967 10.8531L38.573 10.7157L36.3843 7.64453Z" fill="#FFC116"/>
</svg>
