<svg width="24" height="18" viewBox="0 0 24 18" fill="none" xmlns="http://www.w3.org/2000/svg">
<path d="M0.333008 15.6443C0.333008 11.2154 0.333008 6.78651 0.333008 2.35677C0.58149 1.23974 1.40518 0.833008 2.2452 0.833008C8.74616 0.837271 15.2471 0.834713 21.7481 0.838124C21.9432 0.838124 22.1453 0.853471 22.3327 0.90378C23.1736 1.12889 23.6628 1.78205 23.6646 2.67397C23.668 4.44416 23.6654 6.2135 23.6654 7.98369C23.6654 10.4241 23.6646 12.8645 23.6663 15.3041C23.6663 15.9129 23.4565 16.4211 22.9655 16.8014C22.6001 17.0845 22.1754 17.1655 21.7257 17.1655C18.9314 17.1646 16.1361 17.1655 13.3418 17.1655C9.6584 17.1655 5.97502 17.1646 2.29163 17.1663C1.76544 17.1663 1.28653 17.0512 0.890158 16.6829C0.583209 16.3981 0.433604 16.0348 0.333008 15.6443ZM8.26037 8.98902C8.26123 8.98902 8.26295 8.98902 8.26381 8.98902C8.26381 9.67373 8.24575 10.3593 8.26897 11.0432C8.2896 11.64 8.69715 12.057 9.2543 12.0382C9.52427 12.0289 9.80801 11.9385 10.0539 11.82C11.3548 11.1915 12.6462 10.5426 13.9402 9.89884C14.0623 9.8383 14.1801 9.76923 14.2936 9.69505C14.8877 9.30622 14.8877 8.69654 14.2927 8.30686C14.1543 8.21562 14.0073 8.13547 13.8585 8.06129C12.8027 7.53432 11.7451 7.00992 10.6867 6.48722C10.3884 6.3397 10.0926 6.18536 9.78308 6.06343C8.96369 5.74026 8.30164 6.15296 8.26467 7.02526C8.23801 7.67928 8.26037 8.335 8.26037 8.98902ZM1.61927 3.75177C2.52894 3.75177 3.41969 3.75177 4.31646 3.75177C4.31646 3.20008 4.31646 2.66459 4.31646 2.11887C3.40937 2.11887 2.51862 2.11887 1.61927 2.11887C1.61927 2.6663 1.61927 3.19838 1.61927 3.75177ZM6.17363 3.75007C7.08588 3.75007 7.97578 3.75007 8.86911 3.75007C8.86911 3.19753 8.86911 2.66118 8.86911 2.11972C7.9603 2.11972 7.0704 2.11972 6.17363 2.11972C6.17363 2.66886 6.17363 3.20094 6.17363 3.75007ZM10.7366 2.11205C10.7366 2.67227 10.7366 3.21117 10.7366 3.75689C11.6368 3.75689 12.5233 3.75689 13.4175 3.75689C13.4175 3.20349 13.4175 2.66033 13.4175 2.11205C12.5164 2.11205 11.6368 2.11205 10.7366 2.11205ZM17.977 2.12057C17.0725 2.12057 16.1826 2.12057 15.2935 2.12057C15.2935 2.67568 15.2935 3.21373 15.2935 3.75433C16.1937 3.75433 17.0785 3.75433 17.977 3.75433C17.977 3.20435 17.977 2.66715 17.977 2.12057ZM22.5262 3.75604C22.5262 3.19667 22.5262 2.65947 22.5262 2.11801C21.6217 2.11801 20.7378 2.11801 19.847 2.11801C19.847 2.66971 19.847 3.20776 19.847 3.75604C20.7438 3.75604 21.6277 3.75604 22.5262 3.75604ZM4.23822 15.9214C4.23822 15.3603 4.23822 14.8291 4.23822 14.2885C3.33457 14.2885 2.44382 14.2885 1.54705 14.2885C1.54705 14.841 1.54705 15.3774 1.54705 15.9214C2.45156 15.9214 3.33801 15.9214 4.23822 15.9214ZM8.79258 14.2885C7.88807 14.2885 6.99732 14.2885 6.10055 14.2885C6.10055 14.841 6.10055 15.3774 6.10055 15.9129C7.00936 15.9129 7.90011 15.9129 8.79258 15.9129C8.79258 15.3612 8.79258 14.8291 8.79258 14.2885ZM13.3487 15.9223C13.3487 15.3638 13.3487 14.8325 13.3487 14.2868C12.445 14.2868 11.5543 14.2868 10.6532 14.2868C10.6532 14.8376 10.6532 15.3748 10.6532 15.9223C11.5551 15.9223 12.4424 15.9223 13.3487 15.9223ZM17.903 15.9223C17.903 15.3646 17.903 14.8334 17.903 14.2877C16.9994 14.2877 16.1086 14.2877 15.2067 14.2877C15.2067 14.8368 15.2067 15.3748 15.2067 15.9223C16.1086 15.9223 16.9951 15.9223 17.903 15.9223ZM19.7602 15.918C20.663 15.918 21.5546 15.918 22.454 15.918C22.454 15.3663 22.454 14.8291 22.454 14.2919C21.546 14.2919 20.6544 14.2919 19.7602 14.2919C19.7602 14.8419 19.7602 15.3731 19.7602 15.918Z" fill="#B0B0B0"/>
</svg>
