<svg width="18" height="22" viewBox="0 0 18 22" fill="none" xmlns="http://www.w3.org/2000/svg">
<path d="M17.0203 21.5127C12.1714 21.5127 7.3225 21.5127 2.47363 21.5127C2.45064 21.5009 2.42827 21.4823 2.40341 21.4779C1.16448 21.2443 0.352398 20.2831 0.351155 19.0131C0.346806 13.6876 0.346184 8.36283 0.351155 3.0374C0.352398 1.58783 1.41923 0.537781 2.87066 0.53716C6.81736 0.535296 10.7641 0.536539 14.7114 0.536539C15.2724 0.536539 15.5881 0.850312 15.5887 1.40951C15.5899 2.1607 15.5893 2.91127 15.5893 3.66246C15.5893 3.73453 15.5893 3.80599 15.5893 3.89111C15.8186 3.89111 16.0162 3.89111 16.2131 3.89111C16.384 3.89111 16.5543 3.89111 16.7251 3.89111C17.3371 3.89235 17.6273 4.18189 17.6273 4.79453C17.6279 10.0448 17.6248 15.295 17.6316 20.5447C17.6329 21.015 17.4819 21.353 17.0203 21.5127ZM9.17842 11.9777C9.17842 9.76642 9.17842 7.59425 9.17842 5.42766C7.6866 5.42766 6.2097 5.42766 4.73776 5.42766C4.73776 7.60978 4.73776 9.77574 4.73776 11.9684C4.80548 11.9169 4.85333 11.8827 4.89931 11.8448C5.37463 11.4558 5.84994 11.0669 6.32402 10.6761C6.80555 10.2796 7.10876 10.2784 7.58905 10.6736C8.10973 11.1029 8.63165 11.5298 9.17842 11.9777ZM14.0615 2.05694C13.9708 2.05694 13.9036 2.05694 13.8359 2.05694C10.2049 2.05694 6.5738 2.05694 2.94273 2.05756C2.86755 2.05756 2.79237 2.05694 2.71781 2.06626C2.34004 2.11286 2.06727 2.30485 1.93679 2.66771C1.70939 3.29898 2.16793 3.89049 2.88805 3.89049C6.55329 3.89235 10.2185 3.89111 13.8838 3.89111C13.9422 3.89111 14.0012 3.88303 14.0615 3.87868C14.0615 3.26791 14.0615 2.67578 14.0615 2.05694Z" fill="#B0B0B0"/>
</svg>
