<svg width="23" height="22" viewBox="0 0 23 22" fill="none" xmlns="http://www.w3.org/2000/svg">
<path fill-rule="evenodd" clip-rule="evenodd" d="M8.83602 10.1915C8.37664 10.1915 8.01341 10.5485 8.01341 11C8.01341 11.441 8.37664 11.8085 8.83602 11.8085H15.2459V16.8275C15.2459 19.4 13.12 21.5 10.4919 21.5H5.28921C2.67184 21.5 0.545898 19.4105 0.545898 16.838V5.1725C0.545898 2.5895 2.68253 0.5 5.2999 0.5H10.5133C13.12 0.5 15.2459 2.5895 15.2459 5.162V10.1915H8.83602ZM19.0575 7.36695L22.1235 10.4225C22.281 10.58 22.365 10.7795 22.365 11C22.365 11.21 22.281 11.42 22.1235 11.567L19.0575 14.6225C18.9 14.78 18.69 14.864 18.4905 14.864C18.2805 14.864 18.0705 14.78 17.913 14.6225C17.598 14.3075 17.598 13.793 17.913 13.478L19.593 11.8085H15.246V10.1915H19.593L17.913 8.52195C17.598 8.20695 17.598 7.69245 17.913 7.37745C18.228 7.05195 18.7425 7.05195 19.0575 7.36695Z" fill="#B0B0B0"/>
</svg>
