<svg width="22" height="20" viewBox="0 0 22 20" fill="none" xmlns="http://www.w3.org/2000/svg">
<path fill-rule="evenodd" clip-rule="evenodd" d="M17.0573 6.2007H21.5C21.5 2.63363 19.3627 0.549805 15.7413 0.549805H6.25867C2.63733 0.549805 0.5 2.63363 0.5 6.1552V13.8444C0.5 17.366 2.63733 19.4498 6.25867 19.4498H15.7413C19.3627 19.4498 21.5 17.366 21.5 13.8444V13.5168H17.0573C14.9955 13.5168 13.324 11.8872 13.324 9.87696C13.324 7.86672 14.9955 6.23709 17.0573 6.23709V6.2007ZM17.0576 7.76504H20.7162C21.1492 7.76504 21.5002 8.10726 21.5002 8.52941V11.1865C21.4952 11.6066 21.1471 11.946 20.7162 11.9509H17.1416C16.0977 11.9646 15.185 11.2678 14.9482 10.2765C14.8297 9.66121 14.9961 9.02625 15.403 8.54183C15.8098 8.05742 16.4154 7.77308 17.0576 7.76504ZM17.2163 10.5585H17.5616C18.0049 10.5585 18.3643 10.2082 18.3643 9.77595C18.3643 9.34375 18.0049 8.99338 17.5616 8.99338H17.2163C17.0043 8.99095 16.8001 9.07136 16.6493 9.21668C16.4985 9.362 16.4136 9.56013 16.4136 9.76685C16.4136 10.2006 16.7715 10.5535 17.2163 10.5585ZM5.47444 6.20066H11.4011C11.8444 6.20066 12.2038 5.85029 12.2038 5.41809C12.2038 4.98588 11.8444 4.63551 11.4011 4.63551H5.47444C5.03476 4.63549 4.67689 4.98034 4.67178 5.40899C4.67175 5.84268 5.02964 6.19567 5.47444 6.20066Z" fill="#B0B0B0"/>
</svg>
