<svg width="26" height="26" viewBox="0 0 26 26" fill="none" xmlns="http://www.w3.org/2000/svg">
<path d="M8.9532 0.166992C9.38768 0.166992 9.82216 0.166992 10.2566 0.166992C10.318 0.180992 10.3793 0.198372 10.4411 0.208509C10.9084 0.285268 11.3834 0.328233 11.842 0.440716C17.6597 1.86968 20.6842 8.24258 18.1246 13.662C15.8074 18.5673 9.72223 20.508 5.00906 17.8408C4.86182 17.7577 4.73437 17.7505 4.57941 17.794C3.21851 18.1749 1.85568 18.5509 0.49382 18.928C0.406923 18.9521 0.318578 18.9709 0.203682 18.9984C0.614509 17.5164 1.01134 16.0768 1.41589 14.6391C1.4632 14.4716 1.44582 14.3403 1.35941 14.1882C0.912371 13.4009 0.584578 12.5642 0.403061 11.6764C0.306992 11.2067 0.244716 10.7298 0.166992 10.2562C0.166992 9.82168 0.166992 9.3872 0.166992 8.95272C0.214785 8.6283 0.258716 8.30292 0.310854 7.97948C0.903199 4.31968 3.85672 1.20058 7.48658 0.412716C7.9703 0.307958 8.46416 0.248096 8.9532 0.166992ZM10.3286 11.7884C10.3286 11.4689 10.3155 11.1705 10.3353 10.8751C10.3426 10.7616 10.3971 10.625 10.4768 10.5473C10.8393 10.1939 11.2251 9.86417 11.5915 9.51416C12.6926 8.46175 12.8056 6.7832 11.8613 5.59803C10.9272 4.42637 9.26603 4.15941 8.0041 5.00279C7.16603 5.56279 6.74458 6.36754 6.7103 7.39389C7.19934 7.39389 7.66858 7.39389 8.14796 7.39389C8.15906 7.31906 8.16823 7.2563 8.17692 7.19354C8.27058 6.52299 8.84892 5.99437 9.52479 5.96203C10.1239 5.93354 10.6776 6.26906 10.9229 6.80927C11.1724 7.35961 11.0648 8.00506 10.6202 8.4323C10.1041 8.9281 9.56775 9.40265 9.04444 9.89072C8.9783 9.95251 8.89237 10.0399 8.89044 10.1176C8.87741 10.6699 8.8832 11.2231 8.8832 11.7884C9.36982 11.7884 9.8323 11.7884 10.3286 11.7884ZM8.90058 13.2638C8.90058 13.7455 8.90058 14.2133 8.90058 14.684C9.38237 14.684 9.84437 14.684 10.3098 14.684C10.3098 14.2022 10.3098 13.7344 10.3098 13.2638C9.82796 13.2638 9.36547 13.2638 8.90058 13.2638Z" fill="#B0B0B0"/>
<path d="M16.7655 25.3589C16.2542 25.2614 15.7319 25.2025 15.2337 25.0596C13.0748 24.4412 11.4489 23.1367 10.3467 21.1796C10.3192 21.1309 10.2951 21.0797 10.2724 21.0285C10.2666 21.016 10.2714 20.9986 10.2714 20.9832C15.925 20.9735 20.9467 16.0812 20.9834 10.249C21.5646 10.5334 22.0879 10.8858 22.5644 11.3048C24.1604 12.7077 25.0878 14.4621 25.3161 16.5799C25.3229 16.6427 25.3441 16.7035 25.3586 16.7658C25.3586 17.1679 25.3586 17.5705 25.3586 17.9727C25.3451 18.0267 25.3238 18.0798 25.319 18.1344C25.2157 19.2621 24.8739 20.3141 24.3294 21.3047C24.2801 21.3945 24.2801 21.5354 24.3081 21.6392C24.6137 22.7694 24.9294 23.8971 25.2422 25.0253C25.2669 25.1132 25.2871 25.2025 25.3147 25.3121C25.248 25.2985 25.2176 25.2937 25.1877 25.2855C24.0358 24.9674 22.8825 24.6541 21.7336 24.3253C21.525 24.2659 21.3676 24.3002 21.1711 24.3847C20.5469 24.6531 19.9155 24.9104 19.2686 25.1156C18.8529 25.2474 18.4059 25.2807 17.9729 25.3579C17.5702 25.3589 17.1676 25.3589 16.7655 25.3589Z" fill="#B0B0B0"/>
</svg>
