<svg width="22" height="22" viewBox="0 0 22 22" fill="none" xmlns="http://www.w3.org/2000/svg">
<path d="M5.50676 21.3544C5.27167 21.3052 5.03253 21.2698 4.802 21.2049C3.32561 20.7889 2.39286 19.651 2.3275 18.1016C2.26012 16.5011 2.43593 14.9234 3.04442 13.4247C3.43707 12.457 4.00757 11.62 4.96363 11.1088C5.55337 10.7937 6.18568 10.6432 6.84737 10.6569C7.05611 10.6614 7.27549 10.7668 7.46599 10.8702C7.77303 11.0369 8.05726 11.2446 8.35517 11.4285C10.0874 12.498 11.8207 12.497 13.5514 11.4244C13.7916 11.2755 14.0373 11.1316 14.2628 10.9624C14.6772 10.6518 15.1327 10.6133 15.6252 10.6852C16.9683 10.8828 17.9173 11.6185 18.5572 12.7924C19.1282 13.8402 19.3855 14.9786 19.4995 16.1515C19.5583 16.7539 19.5862 17.3619 19.5786 17.9669C19.5568 19.7736 18.3165 21.1183 16.5194 21.3164C16.4748 21.3214 16.4318 21.3412 16.3877 21.3544C12.7615 21.3544 9.1339 21.3544 5.50676 21.3544Z" fill="#B0B0B0"/>
<path d="M11.318 10.4811C8.53898 10.4644 6.31629 8.2275 6.33706 5.46876C6.35783 2.69989 8.58914 0.500507 11.3433 0.5C14.0499 0.499493 16.3399 2.74549 16.3156 5.50473C16.2918 8.27917 14.061 10.4973 11.318 10.4811Z" fill="#B0B0B0"/>
</svg>
