<svg width="32" height="32" viewBox="0 0 32 32" fill="none" xmlns="http://www.w3.org/2000/svg">
<path d="M15.9392 3.63401e-05H15.9908C19.0001 -0.00632616 21.95 0.822904 24.5008 2.39223C27.0516 3.96155 29.0995 6.20714 30.4088 8.87039C31.718 11.5336 32.2354 14.5062 31.9012 17.4458C31.567 20.3853 30.3949 23.1724 28.5198 25.4858L30.849 30.8045C30.8946 30.9074 30.919 31.0183 30.9209 31.1306C30.9229 31.2429 30.9022 31.3544 30.8602 31.4589C30.8181 31.5633 30.7555 31.6586 30.6759 31.7392C30.5964 31.8198 30.5014 31.8842 30.3964 31.9286C30.2416 31.9943 30.071 32.0152 29.9045 31.9891L21.3625 30.5143C19.6555 31.1256 17.8519 31.435 16.0351 31.4282C11.7951 31.4407 7.72365 29.7971 4.71649 26.859C1.70934 23.9208 0.0127922 19.9289 7.20438e-05 15.7612C-0.0126481 11.5936 1.6595 7.59172 4.64867 4.63592C7.63783 1.68012 11.6992 0.0125392 15.9392 3.63401e-05Z" fill="white"/>
<path d="M14.8924 23.7897C14.915 23.5075 15.0487 23.2451 15.265 23.0583C15.4813 22.8714 15.7632 22.7747 16.0508 22.7888C16.3376 22.7772 16.6178 22.8748 16.8331 23.0612C17.0485 23.2477 17.1823 23.5086 17.2068 23.7897C17.1841 24.0714 17.0508 24.3334 16.835 24.5202C16.6193 24.707 16.338 24.804 16.0508 24.7906C15.7637 24.8028 15.4828 24.7055 15.2669 24.519C15.051 24.3325 14.9168 24.0712 14.8924 23.7897ZM14.8924 20.3278V16.2421C14.912 15.9592 15.0444 15.6953 15.2609 15.5079C15.4774 15.3205 15.7604 15.2246 16.0484 15.2412C16.906 15.2903 17.7488 15.0048 18.3935 14.4467C19.0383 13.8885 19.4329 13.1029 19.4917 12.2604C19.4323 11.4188 19.0377 10.6341 18.3936 10.0766C17.7495 9.519 16.9077 9.2335 16.0508 9.28197C15.1935 9.23284 14.3511 9.51804 13.7064 10.0757C13.0618 10.6333 12.6669 11.4183 12.6074 12.2604C12.5878 12.5437 12.4551 12.808 12.238 12.9955C12.021 13.183 11.7374 13.2785 11.449 13.2613C11.1602 13.2792 10.8759 13.1839 10.6584 12.9964C10.4408 12.8088 10.3077 12.5442 10.2881 12.2604C10.3873 10.8512 11.0482 9.53749 12.1273 8.60455C13.2063 7.67161 14.6162 7.19484 16.0508 7.27782C17.4852 7.19548 18.8948 7.67248 19.9737 8.60529C21.0526 9.5381 21.7137 10.8515 21.8135 12.2604C21.7478 13.4748 21.2512 14.6281 20.41 15.5199C19.5688 16.4116 18.4363 16.9854 17.2093 17.1414V20.3326C17.1897 20.6159 17.0569 20.8802 16.8399 21.0677C16.6229 21.2552 16.3392 21.3507 16.0508 21.3335C15.7624 21.3507 15.4788 21.2552 15.2618 21.0677C15.0447 20.8802 14.912 20.6159 14.8924 20.3326V20.3278Z" fill="#E82D27" stroke="#E82D27" stroke-width="0.5"/>
</svg>
