<svg width="26" height="26" viewBox="0 0 26 26" fill="none" xmlns="http://www.w3.org/2000/svg">
<path d="M7.3865 0.0869141C11.1457 0.0869141 14.9048 0.0869141 18.664 0.0869141C18.7124 0.0985364 18.7602 0.116615 18.8099 0.120489C20.3376 0.246397 21.7084 0.779088 22.9145 1.72243C24.2569 2.77167 25.1764 4.11469 25.6161 5.76377C25.7575 6.29387 25.8175 6.84529 25.9144 7.38766C25.9144 9.68694 25.9144 11.9862 25.9144 14.2855C25.9015 14.3339 25.8808 14.3811 25.8776 14.4301C25.784 15.746 25.3707 16.9567 24.645 18.0531C23.5964 19.6363 22.1572 20.7023 20.335 21.2505C19.424 21.5243 18.4897 21.5733 17.5483 21.5669C15.3549 21.5507 13.3261 22.1144 11.4608 23.2734C10.4535 23.8991 9.60507 24.7075 8.78698 25.5527C8.53129 25.8168 8.2459 25.9569 7.88626 25.8019C7.54146 25.6528 7.43557 25.3603 7.43751 25.0026C7.44267 23.9456 7.43944 22.8886 7.43944 21.8316C7.43944 21.7425 7.43944 21.6528 7.43944 21.5637C7.10175 21.5178 6.79376 21.49 6.49093 21.4319C4.41893 21.0335 2.76663 19.974 1.54435 18.2539C0.580988 16.8973 0.142569 15.3735 0.138695 13.7186C0.134821 11.8229 0.141924 9.92649 0.136758 8.03076C0.132239 6.4314 0.513838 4.94116 1.4023 3.60202C2.46703 1.99685 3.92369 0.904996 5.78585 0.390386C6.3082 0.245753 6.85252 0.185704 7.3865 0.0869141ZM13.0059 12.5351C13.9479 12.5486 14.7279 11.7886 14.7389 10.8447C14.7499 9.90647 13.9912 9.12778 13.0453 9.10582C12.1207 9.08452 11.3232 9.86644 11.3123 10.8046C11.3013 11.7493 12.0567 12.5215 13.0059 12.5351ZM7.43686 12.5351C8.38343 12.5383 9.15115 11.7757 9.15373 10.8304C9.15632 9.89033 8.38666 9.11293 7.44719 9.10647C6.51676 9.10001 5.73032 9.88323 5.72644 10.8201C5.72257 11.7596 6.49222 12.5318 7.43686 12.5351ZM18.604 12.5351C19.5467 12.5389 20.3215 11.7712 20.3247 10.8298C20.3279 9.8955 19.5499 9.11099 18.6143 9.10582C17.68 9.10131 16.9006 9.87871 16.8974 10.8195C16.8948 11.766 17.6561 12.5312 18.604 12.5351Z" fill="#757575"/>
</svg>
