<svg width="24" height="24" viewBox="0 0 24 24" fill="none" xmlns="http://www.w3.org/2000/svg">
<path d="M18.0497 0.722656C18.4036 0.807344 18.7662 0.865567 19.11 0.981131C21.1744 1.67496 22.4852 3.73173 22.2637 5.90671C22.0448 8.05655 20.3835 9.78383 18.2479 10.0829C15.7088 10.438 13.3855 8.71465 12.9604 6.16033C12.5463 3.67042 14.2511 1.25769 16.7449 0.803375C16.8729 0.779997 16.9995 0.749562 17.1265 0.722656C17.4342 0.722656 17.742 0.722656 18.0497 0.722656Z" fill="#FFA216"/>
<path d="M10.661 23.3072C10.2192 23.1607 9.74882 23.0694 9.34175 22.8564C8.39485 22.3606 7.82909 21.5473 7.58203 20.4922C9.87938 20.4922 12.157 20.4922 14.4987 20.4922C14.38 20.8032 14.2974 21.1057 14.1549 21.3761C13.5958 22.44 12.7183 23.0739 11.5314 23.2688C11.4892 23.2759 11.4492 23.2944 11.4083 23.3076C11.1591 23.3072 10.9098 23.3072 10.661 23.3072Z" fill="white"/>
<path d="M11.6346 2.64463C10.714 4.83682 10.7923 6.96549 12.0733 8.96845C13.349 10.9635 15.2327 11.9352 17.5661 12.0282C17.6461 12.4927 17.6975 12.9603 17.8105 13.4119C18.1217 14.6575 18.7636 15.7104 19.7342 16.552C20.1896 16.9468 20.4587 17.4223 20.398 18.0354C20.3118 18.9021 19.6366 19.4927 18.7051 19.5439C18.6392 19.5474 18.5732 19.5465 18.5073 19.5465C13.5178 19.5465 8.52833 19.5492 3.5393 19.5403C3.25268 19.5399 2.9476 19.4958 2.6834 19.3908C1.53341 18.9352 1.27844 17.4986 2.20116 16.6724C2.96211 15.9909 3.57315 15.208 3.96923 14.2628C4.27915 13.5235 4.44884 12.7521 4.45807 11.9502C4.46818 11.0464 4.45939 10.1422 4.46247 9.23795C4.47302 6.18786 6.41078 3.64192 9.33984 2.82768C10.0533 2.6292 10.7808 2.57979 11.5167 2.62479C11.5501 2.62699 11.5836 2.63581 11.6346 2.64463Z" fill="white"/>
</svg>
