<svg width="14" height="14" viewBox="0 0 14 14" fill="none" xmlns="http://www.w3.org/2000/svg">
<path d="M6.79498 0.367203H6.81598C8.03948 0.364571 9.23884 0.707575 10.2759 1.35671C11.313 2.00585 12.1457 2.93472 12.678 4.03635C13.2103 5.13798 13.4207 6.36756 13.2848 7.58349C13.1489 8.79943 12.6723 9.95225 11.91 10.9092L12.857 13.1092C12.8755 13.1518 12.8855 13.1976 12.8862 13.2441C12.887 13.2906 12.8786 13.3367 12.8615 13.3799C12.8444 13.4231 12.819 13.4625 12.7866 13.4958C12.7543 13.5292 12.7156 13.5558 12.673 13.5742C12.61 13.6014 12.5407 13.61 12.473 13.5992L8.99998 12.9892C8.30595 13.242 7.57263 13.37 6.83398 13.3672C5.11007 13.3724 3.45472 12.6925 2.23208 11.4772C1.00943 10.2619 0.319654 8.61061 0.314482 6.8867C0.309311 5.1628 0.98917 3.50744 2.2045 2.2848C3.41983 1.06215 5.07108 0.372374 6.79498 0.367203ZM9.02298 5.5672H7.10698C7.01622 5.57202 6.93076 5.61148 6.86822 5.67743C6.80568 5.74338 6.77082 5.83081 6.77082 5.9217C6.77082 6.01259 6.80568 6.10002 6.86822 6.16598C6.93076 6.23193 7.01622 6.27138 7.10698 6.2762H9.02198C9.11275 6.27138 9.1982 6.23193 9.26074 6.16598C9.32329 6.10002 9.35815 6.01259 9.35815 5.9217C9.35815 5.83081 9.32329 5.74338 9.26074 5.67743C9.1982 5.61148 9.11275 5.57202 9.02198 5.5672H9.02298ZM4.62298 8.0502H9.02298C9.11375 8.04538 9.1992 8.00593 9.26174 7.93998C9.32429 7.87402 9.35915 7.78659 9.35915 7.6957C9.35915 7.60481 9.32429 7.51738 9.26174 7.45143C9.1992 7.38548 9.11375 7.34602 9.02298 7.3412H4.62298C4.53222 7.34602 4.44676 7.38548 4.38422 7.45143C4.32168 7.51738 4.28682 7.60481 4.28682 7.6957C4.28682 7.78659 4.32168 7.87402 4.38422 7.93998C4.44676 8.00593 4.53222 8.04538 4.62298 8.0502Z" fill="white"/>
</svg>
