<svg width="14" height="14" viewBox="0 0 14 14" fill="none" xmlns="http://www.w3.org/2000/svg">
<path d="M7.46979 0.123062H7.49079C8.71428 0.12043 9.91364 0.463434 10.9507 1.11257C11.9878 1.76171 12.8205 2.69058 13.3528 3.79221C13.8851 4.89384 14.0955 6.12342 13.9596 7.33935C13.8237 8.55528 13.3471 9.70811 12.5848 10.6651L13.5318 12.8651C13.5503 12.9077 13.5603 12.9535 13.561 13C13.5618 13.0464 13.5534 13.0926 13.5363 13.1358C13.5192 13.179 13.4938 13.2184 13.4614 13.2517C13.4291 13.285 13.3905 13.3117 13.3478 13.3301C13.2848 13.3572 13.2155 13.3659 13.1478 13.3551L9.67479 12.7451C8.98075 12.9979 8.24744 13.1259 7.50879 13.1231C5.78488 13.1282 4.12953 12.4484 2.90688 11.233C1.68424 10.0177 0.994459 8.36647 0.989287 6.64256C0.984115 4.91865 1.66397 3.2633 2.8793 2.04066C4.09463 0.818013 5.74588 0.128234 7.46979 0.123062Z" fill="white"/>
<path d="M7.04485 9.96372C7.05407 9.847 7.10842 9.73847 7.19637 9.66117C7.28431 9.58387 7.39891 9.54389 7.51585 9.54972C7.63243 9.54491 7.74637 9.58528 7.83393 9.6624C7.92148 9.73953 7.97591 9.84746 7.98585 9.96372C7.97663 10.0803 7.92242 10.1886 7.8347 10.2659C7.74697 10.3432 7.63262 10.3833 7.51585 10.3777C7.3991 10.3828 7.28491 10.3425 7.19714 10.2654C7.10936 10.1882 7.0548 10.0802 7.04485 9.96372ZM7.04485 8.53172V6.84172C7.05282 6.7247 7.10667 6.61556 7.19468 6.53803C7.2827 6.4605 7.39776 6.42086 7.51485 6.42772C7.86357 6.44803 8.20622 6.32992 8.46835 6.09905C8.73049 5.86819 8.89094 5.54321 8.91485 5.19472C8.89069 4.84659 8.73027 4.52202 8.46838 4.29139C8.20649 4.06076 7.86424 3.94267 7.51585 3.96272C7.1673 3.94239 6.82479 4.06037 6.56268 4.29102C6.30057 4.52168 6.14001 4.84641 6.11585 5.19472C6.10788 5.31192 6.0539 5.42122 5.96566 5.49877C5.87743 5.57633 5.76211 5.61585 5.64485 5.60872C5.52743 5.61613 5.41185 5.57673 5.3234 5.49914C5.23494 5.42156 5.18081 5.3121 5.17285 5.19472C5.2132 4.61183 5.48192 4.06841 5.92062 3.68251C6.35933 3.2966 6.93258 3.09939 7.51585 3.13372C8.09906 3.09966 8.67217 3.29696 9.11081 3.68281C9.54946 4.06866 9.81825 4.61193 9.85885 5.19472C9.83214 5.69703 9.63022 6.1741 9.28821 6.54297C8.9462 6.91184 8.48572 7.14918 7.98685 7.21372V8.53372C7.97888 8.65092 7.9249 8.76022 7.83666 8.83777C7.74843 8.91533 7.63311 8.95485 7.51585 8.94772C7.39859 8.95485 7.28327 8.91533 7.19504 8.83777C7.10681 8.76022 7.05282 8.65092 7.04485 8.53372V8.53172Z" fill="#FBB003" stroke="#FBB003" stroke-width="0.5"/>
</svg>
