<svg width="18" height="18" viewBox="0 0 18 18" fill="none" xmlns="http://www.w3.org/2000/svg">
<path d="M8.53353 1.15538e-05H8.56153C10.1714 -0.00263479 11.7492 0.449369 13.1135 1.30399C14.4778 2.15862 15.573 3.38112 16.273 4.83077C16.9731 6.28043 17.2496 7.8983 17.0706 9.49817C16.8917 11.098 16.2646 12.6148 15.2615 13.874L16.5075 16.774C16.5318 16.8301 16.5448 16.8905 16.5458 16.9517C16.5467 17.0128 16.5356 17.0736 16.513 17.1304C16.4904 17.1873 16.4569 17.2391 16.4142 17.283C16.3716 17.3268 16.3207 17.3618 16.2645 17.386C16.1809 17.4223 16.0885 17.4338 15.9985 17.419L11.4285 16.619C10.5158 16.9506 9.55163 17.1182 8.58053 17.114C6.31108 17.1202 4.13209 16.2247 2.52294 14.6243C0.913781 13.024 0.0062649 10.85 3.23147e-05 8.58051C-0.00620027 6.31105 0.889361 4.13207 2.4897 2.52292C4.09004 0.91376 6.26407 0.00624414 8.53353 1.15538e-05ZM11.4655 6.84401H8.94453C8.82068 6.84401 8.70189 6.89321 8.61431 6.98079C8.52673 7.06837 8.47753 7.18716 8.47753 7.31101C8.47753 7.43487 8.52673 7.55365 8.61431 7.64123C8.70189 7.72881 8.82068 7.77801 8.94453 7.77801H11.4655C11.5894 7.77801 11.7082 7.72881 11.7958 7.64123C11.8833 7.55365 11.9325 7.43487 11.9325 7.31101C11.9325 7.18716 11.8833 7.06837 11.7958 6.98079C11.7082 6.89321 11.5894 6.84401 11.4655 6.84401ZM5.67653 10.112H11.4655C11.5894 10.112 11.7082 10.0628 11.7958 9.97523C11.8833 9.88765 11.9325 9.76887 11.9325 9.64501C11.9325 9.52116 11.8833 9.40237 11.7958 9.31479C11.7082 9.22721 11.5894 9.17801 11.4655 9.17801H5.67653C5.6152 9.17801 5.55448 9.19009 5.49782 9.21356C5.44116 9.23703 5.38968 9.27143 5.34631 9.31479C5.30295 9.35816 5.26855 9.40964 5.24508 9.4663C5.22161 9.52296 5.20953 9.58368 5.20953 9.64501C5.20953 9.70634 5.22161 9.76707 5.24508 9.82372C5.26855 9.88038 5.30295 9.93187 5.34631 9.97523C5.38968 10.0186 5.44116 10.053 5.49782 10.0765C5.55448 10.0999 5.6152 10.112 5.67653 10.112Z" fill="#6B6D70"/>
</svg>
