<svg width="14" height="16" viewBox="0 0 14 16" fill="none" xmlns="http://www.w3.org/2000/svg">
<path d="M7.11446 0.509765C7.45113 0.573627 7.69448 0.780091 7.92854 1.01539C9.62582 2.71918 11.3281 4.41832 13.0284 6.11901C13.3865 6.47707 13.4891 6.93836 13.3043 7.3485C13.0129 7.9961 12.1967 8.18768 11.6464 7.73631C11.5785 7.68082 11.5153 7.61944 11.4533 7.55744C10.6491 6.7539 9.84468 5.95099 9.0427 5.14559C8.66914 4.7708 8.25435 4.42793 8.06959 3.90154C8.05688 3.90495 8.04448 3.90805 8.03177 3.91146C8.03177 3.96602 8.03177 4.02058 8.03177 4.07545C8.03177 7.48056 8.03053 10.8857 8.03363 14.2908C8.03394 14.6315 7.96729 14.9421 7.71215 15.1833C7.3944 15.4837 7.01836 15.5844 6.60667 15.4269C6.17824 15.2629 5.94202 14.9328 5.89397 14.4746C5.88498 14.3875 5.88715 14.2991 5.88715 14.2114C5.88684 10.8308 5.88684 7.44987 5.88684 4.06925C5.88684 4.01345 5.88684 3.95765 5.88684 3.91487C5.72966 4.14521 5.57621 4.37802 5.41346 4.60432C5.35146 4.69051 5.269 4.76274 5.19335 4.83838C4.27109 5.75817 3.34634 6.67547 2.42624 7.59743C2.10353 7.92077 1.72718 8.06027 1.28232 7.93813C0.588218 7.74747 0.312003 6.87636 0.757171 6.30688C0.817002 6.23031 0.883653 6.15838 0.952474 6.08956C2.6386 4.4022 4.3272 2.71701 6.01084 1.02686C6.2452 0.791561 6.48701 0.581377 6.82182 0.509765C6.91947 0.509765 7.01712 0.509765 7.11446 0.509765Z" fill="white"/>
</svg>
