<svg width="17" height="17" viewBox="0 0 17 17" fill="none" xmlns="http://www.w3.org/2000/svg">
<path d="M16.1981 15.2L11.6231 10.582C12.6622 9.27659 13.1613 7.62252 13.0178 5.96021C12.8744 4.29791 12.0991 2.75384 10.8518 1.64575C9.60435 0.537672 7.97966 -0.0501156 6.31203 0.00335245C4.6444 0.0568205 3.0607 0.747476 1.88685 1.93319C0.712991 3.1189 0.0382855 4.70946 0.00157986 6.37755C-0.0351258 8.04563 0.568961 9.66433 1.68952 10.9005C2.81008 12.1367 4.36187 12.8964 6.02553 13.0232C7.6892 13.1499 9.33817 12.6342 10.6331 11.582L15.1791 16.171C15.2424 16.2384 15.3185 16.2925 15.4029 16.3303C15.4872 16.3681 15.5783 16.3888 15.6707 16.3912C15.7631 16.3936 15.8551 16.3777 15.9413 16.3444C16.0276 16.311 16.1063 16.261 16.1731 16.197C16.3077 16.0676 16.3859 15.8903 16.3905 15.7037C16.3952 15.517 16.3261 15.336 16.1981 15.2ZM6.49811 11.64C5.30686 11.64 4.15248 11.2269 3.23167 10.4711C2.31085 9.71538 1.68057 8.66373 1.44822 7.49536C1.21586 6.327 1.39581 5.11421 1.9574 4.06365C2.51899 3.01308 3.42747 2.18974 4.52805 1.73391C5.62863 1.27808 6.85322 1.21796 7.99316 1.5638C9.1331 1.90964 10.1179 2.64004 10.7796 3.63054C11.4414 4.62105 11.7393 5.81038 11.6225 6.99588C11.5057 8.18139 10.9815 9.28972 10.1391 10.132C9.66218 10.6119 9.09481 10.9925 8.46984 11.2517C7.84486 11.5109 7.17469 11.6436 6.49811 11.642V11.64Z" fill="#7D8085"/>
</svg>
